<?xml version="1.0" standalone="no"?>
<!DOCTYPE svg PUBLIC "-//W3C//DTD SVG 20010904//EN"
 "http://www.w3.org/TR/2001/REC-SVG-20010904/DTD/svg10.dtd">
<svg version="1.0" xmlns="http://www.w3.org/2000/svg"
 width="500.000000pt" height="500.000000pt" viewBox="0 0 500.000000 500.000000"
 preserveAspectRatio="xMidYMid meet">
<metadata>
Created by potrace 1.14, written by Peter Selinger 2001-2017
</metadata>
<g transform="translate(0.000000,500.000000) scale(0.100000,-0.100000)"
fill="#000000" stroke="none">
<path d="M2928 4692 c-84 -62 -228 -304 -297 -497 -18 -49 -36 -99 -41 -110
-37 -85 -107 -348 -116 -437 -3 -29 -14 -67 -25 -84 -10 -17 -19 -38 -19 -46
0 -11 -26 -21 -92 -36 -241 -53 -459 -119 -598 -182 -58 -26 -135 -59 -172
-74 -74 -31 -115 -77 -96 -110 5 -9 14 -42 19 -74 6 -31 11 -61 13 -67 9 -30
29 -72 42 -86 8 -9 12 -23 9 -32 -8 -19 -30 -27 -170 -68 -109 -31 -224 -87
-204 -100 6 -3 10 -9 9 -13 -1 -3 4 -37 11 -74 7 -37 12 -70 11 -74 -1 -5 2
-8 8 -8 5 0 10 -7 10 -16 0 -8 7 -22 15 -30 18 -18 20 -55 3 -72 -9 -9 -8 -13
4 -17 9 -4 14 -14 11 -25 -3 -10 0 -21 6 -24 6 -4 11 -14 11 -23 0 -9 8 -35
19 -57 10 -23 28 -66 41 -96 12 -30 31 -67 42 -83 11 -15 16 -27 13 -27 -4 0
0 -11 9 -24 14 -22 14 -25 0 -28 -11 -2 -7 -11 16 -36 16 -18 30 -37 30 -43 0
-5 5 -9 11 -9 5 0 8 -4 4 -9 -6 -10 33 -26 42 -17 3 3 12 -1 19 -9 8 -8 21
-12 29 -9 8 4 15 1 15 -4 0 -6 9 -9 20 -7 11 2 20 -2 20 -8 0 -7 -20 -71 -44
-142 -34 -99 -292 -888 -311 -951 -9 -30 50 -52 79 -31 9 7 38 48 64 91 45 75
50 80 97 93 109 30 233 101 307 175 38 38 40 42 40 78 0 36 -2 39 -31 54 -68
35 -190 -5 -301 -100 -28 -24 -53 -44 -55 -44 -4 0 233 799 241 808 3 5 35 10
67 11 17 1 27 6 27 17 0 8 5 12 10 9 6 -4 30 -3 53 1 34 5 38 8 22 14 -17 7
-11 12 37 34 32 14 65 23 74 19 11 -4 15 -2 11 4 -5 8 4 10 25 9 47 -4 48 -5
48 -17 0 -7 -11 -9 -30 -5 -19 3 -29 2 -25 -4 3 -6 20 -10 37 -10 23 0 29 -4
24 -15 -3 -9 0 -15 9 -15 8 0 15 -7 15 -15 0 -8 9 -24 20 -35 22 -22 25 -41
10 -68 -32 -57 -153 -370 -222 -572 -70 -206 -82 -260 -81 -370 0 -92 12 -116
68 -141 100 -44 236 16 316 140 56 86 29 83 -59 -7 -65 -66 -139 -112 -182
-112 -27 0 -52 42 -54 93 -5 99 45 297 151 597 93 266 129 353 149 360 33 12
184 12 184 0 0 -6 11 -15 25 -20 15 -6 25 -17 25 -30 0 -21 7 -23 100 -22 65
1 159 10 171 18 10 6 62 12 159 19 25 1 72 6 105 9 33 4 78 9 100 11 84 9 132
16 193 30 35 8 77 15 93 15 17 0 38 4 47 9 9 5 56 11 104 15 162 12 210 23
207 49 -4 32 3 45 26 51 14 4 25 11 25 17 0 6 -7 9 -15 6 -8 -4 -17 -2 -20 4
-4 5 -11 7 -16 4 -5 -4 -9 1 -9 9 0 10 6 13 15 10 9 -4 15 0 15 10 0 9 8 16
19 16 11 0 23 5 26 10 3 6 16 10 28 10 15 0 27 10 36 33 8 17 20 37 25 43 15
14 56 24 56 13 0 -9 92 -4 150 10 19 4 34 13 33 19 -4 15 28 52 44 52 14 0 35
34 26 43 -3 3 -2 22 1 43 7 33 10 36 36 32 25 -4 31 0 40 25 5 16 7 33 4 39
-3 5 -7 37 -9 72 l-3 63 64 19 c35 10 64 22 64 26 0 4 9 8 19 8 21 0 33 22 25
44 -5 13 -44 34 -75 40 -8 2 -21 6 -29 9 -19 8 -90 23 -200 41 -19 4 -46 8
-60 11 -14 2 -54 7 -90 11 -36 3 -69 8 -73 11 -5 3 -24 5 -43 5 -27 0 -34 4
-32 17 2 9 11 16 19 16 30 0 47 24 46 64 -1 28 -4 37 -14 34 -7 -3 -13 0 -13
6 0 6 5 11 10 11 6 0 10 9 10 21 0 19 5 20 58 18 32 -1 64 1 70 5 7 4 12 3 12
-1 0 -7 16 -8 64 -4 4 1 5 8 2 17 -3 8 -2 12 4 9 6 -3 10 -1 10 4 0 6 -5 11
-11 11 -6 0 -9 6 -6 13 4 10 -4 14 -25 14 -28 0 -29 -1 -12 -14 10 -7 13 -13
7 -13 -6 0 -16 7 -23 15 -15 18 -34 20 -24 3 5 -9 2 -9 -9 1 -14 11 -17 11
-18 0 -1 -8 0 -18 1 -24 1 -5 -2 -6 -7 -2 -4 5 -8 14 -8 20 0 7 -6 12 -12 11
-7 -1 -25 -2 -39 -2 -16 -1 -23 -6 -18 -14 4 -7 3 -8 -4 -4 -7 4 -12 32 -12
66 0 54 -2 59 -20 55 -13 -3 -23 2 -27 13 -8 22 -44 51 -64 52 -8 0 -26 11
-39 25 -20 22 -21 27 -11 54 7 16 11 40 10 53 -2 12 0 28 4 34 3 6 2 26 -3 44
-5 18 -7 36 -5 40 2 4 0 22 -5 40 -5 18 -10 50 -12 72 -4 71 -11 73 -257 73
-119 -1 -247 -4 -286 -8 -124 -11 -169 -17 -205 -23 -52 -10 -100 -12 -100 -5
0 4 6 15 13 26 34 50 179 462 202 572 2 10 8 38 14 63 9 43 18 86 27 140 11
65 4 210 -12 249 -35 89 -114 116 -186 63z m1113 -1719 c13 -16 12 -17 -3 -4
-17 13 -22 21 -14 21 2 0 10 -8 17 -17z m225 -321 c-5 -8 62 -47 75 -44 3 0 6
-6 6 -14 0 -9 -4 -11 -10 -5 -6 6 -21 4 -42 -4 -30 -13 -33 -13 -42 8 -10 21
-1 67 12 67 4 0 4 -4 1 -8z m56 -7 c3 3 11 -3 19 -12 12 -16 12 -17 -2 -6 -9
7 -18 11 -21 8 -3 -3 -11 3 -19 12 -12 16 -12 17 2 6 9 -7 18 -11 21 -8z
m-2522 -665 c0 -5 -2 -10 -4 -10 -3 0 -8 5 -11 10 -3 6 -1 10 4 10 6 0 11 -4
11 -10z m33 -39 c11 7 17 6 17 -1 0 -9 -20 -14 -47 -11 -6 1 -14 -3 -18 -9 -8
-13 -35 -13 -35 0 0 6 7 10 15 10 8 0 15 5 15 10 0 7 6 7 18 1 11 -6 24 -6 35
0z m-103 -31 c0 -5 -7 -10 -16 -10 -8 0 -12 5 -9 10 3 6 10 10 16 10 5 0 9 -4
9 -10z m620 -65 c0 -12 -19 -12 -23 0 -4 9 -1 12 9 8 7 -3 14 -7 14 -8z m935
-4 c-3 -6 -15 -8 -27 -6 -34 7 -34 15 1 15 18 0 30 -4 26 -9z m-1535 -676 c0
-35 -78 -111 -157 -152 -105 -56 -112 -39 -20 53 47 47 143 115 175 123 1 1 2
-10 2 -24z"/>
<path d="M1965 1959 c-10 -15 3 -25 16 -12 7 7 7 13 1 17 -6 3 -14 1 -17 -5z"/>
<path d="M1905 1940 c-7 -12 2 -12 30 0 19 8 19 9 -2 9 -12 1 -25 -3 -28 -9z"/>
<path d="M2943 1270 c-17 -10 -49 -40 -72 -68 -36 -43 -48 -50 -88 -56 -66 -9
-120 -38 -191 -101 -82 -75 -96 -73 -68 8 30 85 33 147 8 177 -50 61 -174 -8
-203 -113 -6 -23 -24 -65 -40 -94 -34 -62 -46 -130 -26 -155 32 -40 105 -26
168 33 46 43 79 65 80 52 5 -58 23 -69 102 -64 69 3 152 76 282 244 74 97 87
99 79 13 -5 -48 -7 -61 -19 -120 -9 -45 -47 -161 -62 -189 -9 -19 -92 -79
-251 -184 -279 -184 -328 -220 -416 -310 -79 -79 -113 -143 -100 -182 39 -111
333 5 539 214 95 95 158 186 230 334 58 118 61 120 218 225 48 32 85 61 82 64
-3 3 -51 -23 -106 -57 -56 -34 -104 -60 -107 -57 -2 3 5 40 17 83 34 121 45
183 42 238 -2 49 -10 63 -40 73 -23 8 -35 6 -58 -8z m-447 -62 c17 -27 -12
-178 -37 -193 -16 -11 -48 24 -55 61 -8 42 1 68 38 110 32 36 43 41 54 22z
m304 -92 c0 -34 -179 -200 -197 -182 -21 20 80 128 172 183 26 15 25 15 25 -1z
m-403 -125 l32 -25 -20 -27 c-24 -34 -85 -73 -100 -64 -14 9 -5 84 16 125 17
33 19 33 72 -9z m450 -268 c-106 -238 -289 -431 -504 -530 -137 -63 -179 -53
-134 33 26 48 134 158 231 234 36 28 72 57 80 63 8 7 58 42 110 77 52 36 99
69 105 73 24 20 111 76 117 77 4 0 2 -12 -5 -27z"/>
</g>
</svg>
